<svg xmlns="http://www.w3.org/2000/svg" version="1.1" xmlns:xlink="http://www.w3.org/1999/xlink" xmlns:svgjs="http://svgjs.dev/svgjs" width="1000" height="623" viewBox="0 0 1000 623"><g transform="matrix(1,0,0,1,-0.6060606060606233,0.2522267206477409)"><svg viewBox="0 0 396 247" data-background-color="#ffffff" preserveAspectRatio="xMidYMid meet" height="623" width="1000" xmlns="http://www.w3.org/2000/svg" xmlns:xlink="http://www.w3.org/1999/xlink"><g id="tight-bounds" transform="matrix(1,0,0,1,0.2400000000000091,-0.09999999999999432)"><svg viewBox="0 0 395.52 247.2" height="247.2" width="395.52"><g><svg></svg></g><g><svg viewBox="0 0 395.52 247.2" height="247.2" width="395.52"><g transform="matrix(1,0,0,1,75.54432,74.81977197396962)"><svg viewBox="0 0 244.43135999999998 97.56045605206074" height="97.56045605206074" width="244.43135999999998"><g><svg viewBox="0 0 244.43135999999998 97.56045605206074" height="97.56045605206074" width="244.43135999999998"><g><svg viewBox="0 0 244.43135999999998 97.56045605206074" height="97.56045605206074" width="244.43135999999998"><g><svg viewBox="0 0 244.43135999999998 97.56045605206074" height="97.56045605206074" width="244.43135999999998"><g id="textblocktransform"><svg viewBox="0 0 244.43135999999998 97.56045605206074" height="97.56045605206074" width="244.43135999999998" id="textblock"><g><svg viewBox="0 0 244.43135999999998 97.56045605206074" height="97.56045605206074" width="244.43135999999998"><g transform="matrix(1,0,0,1,0,0)"><svg width="244.43135999999998" viewBox="3.3499999046325684 -36.29999923706055 92.19000244140625 36.79999923706055" height="97.56045605206074" data-palette-color="#0063db"><path d="M17.7 0.5L17.7 0.5Q14.8 0.5 12.88-0.5 10.95-1.5 9.7-3.05L9.7-3.05 9.7-1.2Q9.7-0.7 9.38-0.35 9.05 0 8.5 0L8.5 0 4.55 0Q4.05 0 3.7-0.35 3.35-0.7 3.35-1.2L3.35-1.2 3.35-34.3Q3.35-34.8 3.7-35.15 4.05-35.5 4.55-35.5L4.55-35.5 8.8-35.5Q9.35-35.5 9.68-35.15 10-34.8 10-34.3L10-34.3 10-23.2Q11.25-24.65 13.13-25.58 15-26.5 17.7-26.5L17.7-26.5Q20.35-26.5 22.3-25.6 24.25-24.7 25.58-23.08 26.9-21.45 27.6-19.3 28.3-17.15 28.35-14.65L28.35-14.65Q28.4-13.75 28.4-13.03 28.4-12.3 28.35-11.4L28.35-11.4Q28.25-8.8 27.55-6.63 26.85-4.45 25.55-2.85 24.25-1.25 22.3-0.38 20.35 0.5 17.7 0.5ZM15.85-4.85L15.85-4.85Q18-4.85 19.2-5.78 20.4-6.7 20.95-8.2 21.5-9.7 21.6-11.5L21.6-11.5Q21.65-13 21.6-14.5L21.6-14.5Q21.5-16.3 20.95-17.8 20.4-19.3 19.2-20.23 18-21.15 15.85-21.15L15.85-21.15Q13.85-21.15 12.6-20.25 11.35-19.35 10.7-17.98 10.05-16.6 10-15.1L10-15.1Q9.95-14.2 9.95-13.18 9.95-12.15 10-11.25L10-11.25Q10.1-9.7 10.68-8.22 11.25-6.75 12.53-5.8 13.8-4.85 15.85-4.85ZM39.3 0L35.15 0Q34.65 0 34.3-0.35 33.95-0.7 33.95-1.2L33.95-1.2 33.95-24.8Q33.95-25.3 34.3-25.65 34.65-26 35.15-26L35.15-26 39.3-26Q39.85-26 40.17-25.65 40.5-25.3 40.5-24.8L40.5-24.8 40.5-1.2Q40.5-0.7 40.17-0.35 39.85 0 39.3 0L39.3 0ZM39.5-30.3L34.95-30.3Q34.45-30.3 34.1-30.65 33.75-31 33.75-31.5L33.75-31.5 33.75-35.1Q33.75-35.6 34.1-35.95 34.45-36.3 34.95-36.3L34.95-36.3 39.5-36.3Q40.05-36.3 40.4-35.95 40.75-35.6 40.75-35.1L40.75-35.1 40.75-31.5Q40.75-31 40.4-30.65 40.05-30.3 39.5-30.3L39.5-30.3ZM52.55 0L48.4 0Q47.9 0 47.55-0.35 47.2-0.7 47.2-1.2L47.2-1.2 47.2-34.3Q47.2-34.8 47.55-35.15 47.9-35.5 48.4-35.5L48.4-35.5 52.55-35.5Q53.05-35.5 53.4-35.15 53.75-34.8 53.75-34.3L53.75-34.3 53.75-1.2Q53.75-0.7 53.4-0.35 53.05 0 52.55 0L52.55 0ZM67.94 0.5L67.94 0.5Q65.34 0.5 63.24-0.53 61.14-1.55 59.92-3.28 58.69-5 58.69-7.15L58.69-7.15Q58.69-10.65 61.54-12.73 64.39-14.8 68.99-15.5L68.99-15.5 75.84-16.5 75.84-17.55Q75.84-19.65 74.79-20.8 73.74-21.95 71.19-21.95L71.19-21.95Q69.39-21.95 68.27-21.23 67.14-20.5 66.59-19.3L66.59-19.3Q66.19-18.65 65.44-18.65L65.44-18.65 61.49-18.65Q60.94-18.65 60.67-18.95 60.39-19.25 60.39-19.75L60.39-19.75Q60.44-20.55 61.07-21.7 61.69-22.85 62.97-23.93 64.24-25 66.29-25.75 68.34-26.5 71.24-26.5L71.24-26.5Q74.39-26.5 76.57-25.73 78.74-24.95 80.04-23.65 81.34-22.35 81.94-20.6 82.54-18.85 82.54-16.9L82.54-16.9 82.54-1.2Q82.54-0.7 82.19-0.35 81.84 0 81.34 0L81.34 0 77.29 0Q76.74 0 76.42-0.35 76.09-0.7 76.09-1.2L76.09-1.2 76.09-3.15Q75.44-2.25 74.34-1.4 73.24-0.55 71.67-0.03 70.09 0.5 67.94 0.5ZM69.64-4.25L69.64-4.25Q71.39-4.25 72.82-5 74.24-5.75 75.07-7.33 75.89-8.9 75.89-11.3L75.89-11.3 75.89-12.35 70.89-11.55Q67.94-11.1 66.49-10.1 65.04-9.1 65.04-7.65L65.04-7.65Q65.04-6.55 65.72-5.78 66.39-5 67.44-4.63 68.49-4.25 69.64-4.25ZM94.34 0L90.19 0Q89.69 0 89.34-0.35 88.99-0.7 88.99-1.2L88.99-1.2 88.99-34.3Q88.99-34.8 89.34-35.15 89.69-35.5 90.19-35.5L90.19-35.5 94.34-35.5Q94.84-35.5 95.19-35.15 95.54-34.8 95.54-34.3L95.54-34.3 95.54-1.2Q95.54-0.7 95.19-0.35 94.84 0 94.34 0L94.34 0Z" opacity="1" transform="matrix(1,0,0,1,0,0)" fill="#0063db" class="wordmark-text-0" data-fill-palette-color="primary" id="text-0"></path></svg></g></svg></g></svg></g></svg></g></svg></g></svg></g></svg></g><g><path d="M245.816 0c68.262 0 123.6 55.338 123.6 123.6 0 68.262-55.338 123.6-123.6 123.6-46.368 0-86.772-25.532-107.921-63.304l5.072 0c20.708 35.245 59.015 58.905 102.849 58.905 65.833 0 119.201-53.368 119.201-119.201 0-65.833-53.368-119.201-119.201-119.201-43.833 0-82.141 23.66-102.849 58.905l-5.072 0c21.149-37.772 61.553-63.304 107.921-63.304z" fill="#0063db" stroke="transparent" data-fill-palette-color="tertiary"></path></g></svg></g><defs></defs></svg><rect width="395.52" height="247.2" fill="none" stroke="none" visibility="hidden"></rect></g></svg></g></svg>